<svg width="274" height="63" viewBox="0 0 274 63" fill="none" xmlns="http://www.w3.org/2000/svg">
<path fill-rule="evenodd" clip-rule="evenodd" d="M105.64 51.552V54H89.152V51.552L95.128 50.688L111.4 0H118.888L136.168 50.904L141.928 51.552V54H117.376V51.552L123.784 50.832L119.392 36.936H102.832L98.872 50.616L105.64 51.552ZM103.552 34.416H118.6L110.752 9.792L103.552 34.416ZM176.776 55.224C181.384 55.224 184.12 53.568 185.92 49.608L184.696 48.6C183.328 50.76 182.536 51.336 181.456 51.336C180.088 51.336 179.224 50.4 179.224 47.664V28.296C179.224 17.856 175.12 13.464 164.896 13.464C153.736 13.464 147.472 17.784 146.896 24.552C147.472 26.928 149.272 28.224 151.864 28.224C154.6 28.224 157.048 26.28 157.264 21.384L157.768 16.272C158.848 16.056 159.784 15.984 160.792 15.984C166.264 15.984 167.992 18.216 167.992 25.704V30.096C165.472 30.744 162.952 31.392 160.936 31.968C149.344 35.352 145.6 38.88 145.6 45.432C145.6 51.48 149.92 55.224 156.112 55.224C161.872 55.224 164.608 52.992 168.28 48.96C169.36 52.848 172.024 55.224 176.776 55.224ZM156.328 43.992C156.328 48.312 158.344 50.328 161.728 50.328C163.672 50.328 165.328 49.392 167.992 47.016V32.04C166.336 32.472 164.896 32.904 164.032 33.264C158.992 35.352 156.328 38.736 156.328 43.992Z" fill="#FEFEFE"/>
<path d="M88 59V63H183.132V59H88Z" fill="#FEFEFE"/>
<g opacity="0.15">
<path d="M-42 30V34H53.132V30H-42Z" fill="#FEFEFE"/>
</g>
<g opacity="0.15">
<path d="M218 30V34H313.132V30H218Z" fill="#FEFEFE"/>
</g>
</svg>
