<svg width="102" height="19" viewBox="0 0 102 19" fill="none" xmlns="http://www.w3.org/2000/svg">
<path fill-rule="evenodd" clip-rule="evenodd" d="M71.3122 0.648438H68.0037V18.0651H71.3122V0.648438ZM19.9502 9.58296V18.0651H16.6417V9.58296H14.7463V6.75558H16.6417V5.22879C16.6417 4.30895 16.8447 3.52483 17.2506 2.87641C17.6565 2.228 18.1926 1.73227 18.8589 1.38921C19.5252 1.04616 20.2451 0.874628 21.0186 0.874628C21.5241 0.874628 22.0353 0.950025 22.5522 1.10082C23.0692 1.25161 23.5727 1.48534 24.0629 1.80201L22.7877 4.09784C22.5963 3.93951 22.3933 3.83395 22.1789 3.78118C21.9644 3.7284 21.7691 3.70201 21.593 3.70201C21.1028 3.70201 20.7065 3.86223 20.404 4.18266C20.1015 4.5031 19.9502 4.99883 19.9502 5.66987V6.75558H22.7418V9.58296H19.9502ZM7.12985 18.2913C8.30926 18.2913 9.35848 18.0368 10.2775 17.5279C11.1965 17.019 11.9222 16.3216 12.4544 15.4356C12.9867 14.5497 13.2528 13.5413 13.2528 12.4103C13.2528 11.2794 12.9867 10.271 12.4544 9.38504C11.9222 8.49913 11.1965 7.80171 10.2775 7.29278C9.35848 6.78385 8.30926 6.52939 7.12985 6.52939C5.95043 6.52939 4.8993 6.78385 3.97644 7.29278C3.05359 7.80171 2.32603 8.49913 1.79376 9.38504C1.2615 10.271 0.995361 11.2794 0.995361 12.4103C0.995361 13.5413 1.2615 14.5497 1.79376 15.4356C2.32603 16.3216 3.05359 17.019 3.97644 17.5279C4.8993 18.0368 5.95043 18.2913 7.12985 18.2913ZM7.12985 15.4639C6.28741 15.4639 5.59048 15.1736 5.03907 14.5931C4.48765 14.0125 4.21194 13.2849 4.21194 12.4103C4.21194 11.5357 4.48765 10.8082 5.03907 10.2276C5.59048 9.64705 6.28741 9.35677 7.12985 9.35677C7.97228 9.35677 8.66921 9.64705 9.22062 10.2276C9.77204 10.8082 10.0477 11.5357 10.0477 12.4103C10.0477 13.2849 9.77204 14.0125 9.22062 14.5931C8.66921 15.1736 7.97228 15.4639 7.12985 15.4639ZM30.4156 18.0651V9.58296H33.2071V6.75558H30.4156V5.66987C30.4156 4.99883 30.5669 4.5031 30.8694 4.18266C31.1719 3.86223 31.5682 3.70201 32.0584 3.70201C32.2345 3.70201 32.4298 3.7284 32.6442 3.78118C32.8587 3.83395 33.0616 3.93951 33.2531 4.09784L34.5282 1.80201C34.0381 1.48534 33.5345 1.25161 33.0176 1.10082C32.5006 0.950025 31.9894 0.874628 31.484 0.874628C30.7105 0.874628 29.9906 1.04616 29.3243 1.38921C28.658 1.73227 28.1219 2.228 27.716 2.87641C27.3101 3.52483 27.1071 4.30895 27.1071 5.22879V6.75558H25.2116V9.58296H27.1071V18.0651H30.4156ZM39.1693 4.22225C38.8323 4.55399 38.3881 4.71987 37.8367 4.71987C37.2853 4.71987 36.8411 4.55399 36.5041 4.22225C36.1672 3.8905 35.9987 3.4532 35.9987 2.91034C35.9987 2.36749 36.1672 1.93018 36.5041 1.59844C36.8411 1.26669 37.2853 1.10082 37.8367 1.10082C38.3881 1.10082 38.8323 1.26669 39.1693 1.59844C39.5063 1.93018 39.6748 2.36749 39.6748 2.91034C39.6748 3.4532 39.5063 3.8905 39.1693 4.22225ZM39.491 6.75558H36.1825V18.0651H39.491V6.75558ZM50.3642 17.8502C49.5868 18.1443 48.7425 18.2913 47.8311 18.2913C46.6134 18.2913 45.5278 18.0368 44.5743 17.5279C43.6208 17.019 42.8684 16.3216 42.317 15.4356C41.7656 14.5497 41.4898 13.5413 41.4898 12.4103C41.4898 11.2794 41.7656 10.271 42.317 9.38504C42.8684 8.49913 43.6208 7.80171 44.5743 7.29278C45.5278 6.78385 46.6134 6.52939 47.8311 6.52939C48.7425 6.52939 49.5868 6.67641 50.3642 6.97046C51.1415 7.26451 51.8097 7.67542 52.3688 8.2032L50.0368 10.3633C49.4854 9.69229 48.7501 9.35677 47.8311 9.35677C46.9887 9.35677 46.2917 9.64705 45.7403 10.2276C45.1889 10.8082 44.9132 11.5357 44.9132 12.4103C44.9132 13.2849 45.1889 14.0125 45.7403 14.5931C46.2917 15.1736 46.9887 15.4639 47.8311 15.4639C48.7501 15.4639 49.4854 15.1284 50.0368 14.4574L52.3688 16.6175C51.8097 17.1453 51.1415 17.5562 50.3642 17.8502ZM60.2264 18.2913C61.0229 18.2913 61.8558 18.1631 62.725 17.9068C63.5943 17.6504 64.4731 17.1792 65.3615 16.4931L63.3626 14.1407C62.9337 14.5403 62.457 14.8664 61.9324 15.119C61.4078 15.3716 60.7472 15.4978 59.9507 15.4978C59.2079 15.4978 58.5588 15.3018 58.0036 14.9097C57.4483 14.5177 57.0673 14.0088 56.8605 13.383H65.821V12.399C65.821 11.2605 65.5606 10.2502 65.0398 9.36808C64.5191 8.48594 63.8087 7.79229 62.9088 7.28713C62.009 6.78197 60.9808 6.52939 59.8244 6.52939C58.6603 6.52939 57.6206 6.78385 56.7054 7.29278C55.7902 7.80171 55.0684 8.49536 54.54 9.37374C54.0116 10.2521 53.7473 11.253 53.7473 12.3764C53.7473 13.5149 54.023 14.5309 54.5745 15.4243C55.1259 16.3178 55.8879 17.019 56.8605 17.5279C57.8332 18.0368 58.9551 18.2913 60.2264 18.2913ZM56.7916 11.5734H62.4206C62.2598 10.9099 61.9305 10.3746 61.4327 9.96748C60.9349 9.56034 60.3375 9.35677 59.6406 9.35677C58.936 9.35677 58.3252 9.56411 57.8083 9.97879C57.2913 10.3935 56.9524 10.925 56.7916 11.5734ZM77.102 4.22225C76.765 4.55399 76.3209 4.71987 75.7694 4.71987C75.218 4.71987 74.7738 4.55399 74.4369 4.22225C74.0999 3.8905 73.9314 3.4532 73.9314 2.91034C73.9314 2.36749 74.0999 1.93018 74.4369 1.59844C74.7738 1.26669 75.218 1.10082 75.7694 1.10082C76.3209 1.10082 76.765 1.26669 77.102 1.59844C77.439 1.93018 77.6075 2.36749 77.6075 2.91034C77.6075 3.4532 77.439 3.8905 77.102 4.22225ZM87.8201 17.8728C87.0926 18.1518 86.3765 18.2913 85.6719 18.2913C84.3087 18.2913 83.2614 17.9313 82.53 17.2112C81.7986 16.4912 81.4329 15.4601 81.4329 14.1181V9.58296H79.5374V6.75558H81.4329V3.9282H84.7414V6.75558H87.5329V9.58296H84.7414V13.7449C84.7414 14.2802 84.9156 14.7005 85.2641 15.0059C85.6126 15.3112 86.0548 15.4639 86.5909 15.4639C86.9892 15.4639 87.3989 15.3772 87.8201 15.2038V17.8728ZM96.0224 18.2913C96.8189 18.2913 97.6518 18.1631 98.521 17.9068C99.3903 17.6504 100.269 17.1792 101.157 16.4931L99.1586 14.1407C98.7297 14.5403 98.253 14.8664 97.7284 15.119C97.2038 15.3716 96.5432 15.4978 95.7467 15.4978C95.0038 15.4978 94.3548 15.3018 93.7995 14.9097C93.2443 14.5177 92.8633 14.0088 92.6565 13.383H101.617V12.399C101.617 11.2605 101.357 10.2502 100.836 9.36808C100.315 8.48594 99.6047 7.79229 98.7048 7.28713C97.8049 6.78197 96.7768 6.52939 95.6203 6.52939C94.4563 6.52939 93.4166 6.78385 92.5014 7.29278C91.5862 7.80171 90.8644 8.49536 90.336 9.37374C89.8075 10.2521 89.5433 11.253 89.5433 12.3764C89.5433 13.5149 89.819 14.5309 90.3704 15.4243C90.9218 16.3178 91.6839 17.019 92.6565 17.5279C93.6291 18.0368 94.7511 18.2913 96.0224 18.2913ZM92.5876 11.5734H98.2166C98.0558 10.9099 97.7264 10.3746 97.2286 9.96748C96.7308 9.56034 96.1335 9.35677 95.4365 9.35677C94.732 9.35677 94.1212 9.56411 93.6042 9.97879C93.0873 10.3935 92.7484 10.925 92.5876 11.5734ZM74.1152 18.0651H77.4237V6.75558H74.1152V18.0651Z" fill="#25293A"/>
</svg>
